<svg width="16" height="6" viewBox="0 0 16 6" fill="none" xmlns="http://www.w3.org/2000/svg">
<path d="M16 0L4.29455 4.98405C3.32387 5.39517 2.50875 5.60072 1.84919 5.60072C1.10251 5.60072 0.560953 5.33917 0.224505 4.81605C0.0133915 4.48005 -0.0488313 4.05382 0.0378362 3.53737C0.124948 3.02092 0.355173 2.47025 0.72851 1.88535C1.03962 1.41201 1.55007 0.789786 2.25986 0.0186668C2.01879 0.397656 1.84218 0.813962 1.73719 1.25068C1.55052 2.04713 1.71852 2.63203 2.24119 3.00536C2.49008 3.17959 2.83231 3.2667 3.26787 3.2667C3.61587 3.2667 4.00788 3.2107 4.44388 3.0987L16 0Z" fill="#979797"/>
</svg>
