<svg width="15" height="12" viewBox="0 0 15 12" fill="none" xmlns="http://www.w3.org/2000/svg">
<path d="M14.8229 0.160652C14.5637 -0.170679 14.1105 0.0947588 13.911 0.210383C12.4912 1.0471 12.2817 2.52037 11.7869 3.36641C11.3977 4.04399 10.7599 4.5413 10.1831 4.57984C9.75662 4.6103 9.29412 4.52762 8.83536 4.32808C7.71207 3.84258 7.10722 3.21411 6.95989 3.10346C6.65716 2.87346 4.33038 0.607606 2.4344 0.514983C2.4344 0.514983 2.20316 0.0487579 2.14534 0.0406767C2.00734 0.0251359 1.86561 0.321033 1.76242 0.352115C1.66917 0.385061 1.50568 0.0338387 1.41119 0.0493795C1.31608 0.0618122 1.22346 0.413657 1.03821 0.594552C0.901455 0.72696 0.736101 0.718878 0.642235 0.882368C0.60991 0.942045 0.621099 1.0471 0.584423 1.14345C0.505475 1.34238 0.241903 1.36351 0.239416 1.57673C0.239416 1.81357 0.461339 1.85895 0.655289 2.02431C0.809454 2.15609 0.820022 2.24934 0.999674 2.31088C1.16005 2.36558 1.39255 2.19464 1.59893 2.25618C1.77112 2.30653 1.93647 2.34321 1.97315 2.51913C2.00672 2.67827 1.97315 2.92816 1.7618 2.90019C1.69217 2.89086 1.39006 2.79202 1.01708 2.83181C0.566395 2.87968 0.0516831 3.02389 0.00133083 3.52182C-0.0241561 3.79969 0.32085 4.12481 0.657154 4.06016C0.88778 4.01602 0.778994 3.74561 0.905185 3.61507C1.07116 3.44723 2.00672 4.20189 2.87701 4.20189C3.24563 4.20189 3.51791 4.10864 3.78894 3.8258C3.81381 3.80777 3.84675 3.76239 3.88529 3.75742C3.92865 3.76825 3.96971 3.78678 4.00651 3.81212C4.70958 4.36973 5.23983 5.49053 7.81712 5.50359C8.17891 5.50794 8.59416 5.67702 8.93358 5.9866C9.23196 6.25576 9.4085 6.68593 9.57821 7.12108C9.83805 7.77566 10.2999 8.40724 11.003 9.11217C11.0403 9.15444 11.6184 9.59704 11.6619 9.62999C11.6694 9.6362 11.7141 9.7338 11.6949 9.78851C11.6824 10.2174 11.6184 11.4483 12.5434 11.4999C12.7709 11.5123 12.7143 11.3563 12.7143 11.245C12.7112 11.033 12.6739 10.8192 12.7846 10.5985C12.9419 10.3014 12.4576 10.1578 12.4682 9.50691C12.48 9.01954 12.0672 9.10222 11.8565 8.72986C11.7384 8.51664 11.6277 8.39916 11.6389 8.1418C11.6843 6.66231 11.3175 5.68759 11.1385 5.45199C10.9974 5.26923 10.8756 5.20147 11.0098 5.11631C11.7807 4.60968 11.9578 4.13786 11.9578 4.13786C12.3681 3.17992 12.7386 2.30715 13.2477 1.91863C13.3509 1.84403 13.6139 1.64511 13.7773 1.57052C14.2516 1.34548 14.5065 1.21121 14.6402 1.08067C14.8615 0.871178 15.0349 0.426089 14.8229 0.160652Z" fill="#979797"/>
</svg>
