<svg width="18" height="6" viewBox="0 0 18 6" fill="none" xmlns="http://www.w3.org/2000/svg">
<path d="M11.2433 2.13C13.308 1.305 14.5935 0.831 18 0C16.1497 0.12225 12.0585 0.40275 9.2385 0.95325L11.2433 2.13075M4.82325 4.869H7.52325C8.058 4.059 8.58975 3.6645 9.20925 3.22575C8.73876 3.04379 8.26572 2.86852 7.79025 2.7C6.0675 3.4605 5.109 4.48125 4.8255 4.869M5.35725 1.923C2.94975 2.78325 1.61175 3.71775 0.708 4.869H3.68925C3.9795 4.46475 5.08575 3.29925 7.164 2.4885C6.56575 2.28668 5.96385 2.09813 5.35725 1.923ZM6.5925 0.111H0C6.6465 1.311 9.84975 2.856 15 5.04C14.5597 4.71075 7.46175 0.53025 6.59325 0.111" fill="#979797"/>
</svg>
