<svg width="15" height="8" viewBox="0 0 15 8" fill="none" xmlns="http://www.w3.org/2000/svg">
<path fill-rule="evenodd" clip-rule="evenodd" d="M14.1244 1.97318L12.9219 2.61675L12.835 2.66121L12.9608 2.77813C13.262 3.09013 13.4285 3.4332 13.4285 3.79341C13.4285 4.14781 13.267 4.48574 12.9752 4.79362L12.8946 4.8584L13.0105 4.92346L14.1285 5.51638L14.1166 5.53023C12.7869 6.5677 10.3329 7.26406 7.52551 7.26406C4.69852 7.26406 2.24165 6.5662 0.918585 5.51628L0.906978 5.50795L2.01915 4.97204L2.13747 4.91382L2.05519 4.83182C1.73991 4.51364 1.56505 4.16242 1.56505 3.79322C1.56505 3.43358 1.73111 3.09088 2.03122 2.77944L2.14159 2.67563L0.86916 2.00773L0.893311 1.99602C2.21264 0.940209 4.68878 0.229342 7.52541 0.229342C10.3244 0.229342 12.7717 0.921206 14.1041 1.95334L14.1244 1.97318ZM14.9725 1.83661C13.4652 0.73689 10.6964 0 7.53028 0C4.32099 0 1.51993 0.757203 0.0273338 1.88182L0 1.89436L1.43961 2.60579L1.31483 2.71653C0.975312 3.04838 0.787439 3.41326 0.787439 3.79631C0.787439 4.18966 0.985328 4.56363 1.34198 4.90258L1.43484 4.99001L1.30126 5.05198L0.0428729 5.623L0.056259 5.63198C1.55241 6.75014 4.33204 7.49359 7.53038 7.49359C10.7062 7.49359 13.4825 6.75202 14.9863 5.64678L15 5.63208L13.7352 5.00022L13.6041 4.93104L13.6954 4.86205C14.0255 4.53404 14.2079 4.17421 14.2079 3.7965C14.2079 3.41289 14.0197 3.04753 13.679 2.71504L13.5366 2.59054L13.6352 2.54326L14.9956 1.85748L14.9725 1.83661Z" fill="#979797"/>
<path fill-rule="evenodd" clip-rule="evenodd" d="M7.10582 5.83044C6.30135 5.82595 5.79548 5.80545 5.04549 5.73328C4.6615 5.69639 4.45163 5.68366 4.08347 5.59436C3.61795 5.48166 3.28648 5.39825 2.93301 5.16488C2.76171 5.05162 2.62879 4.94387 2.60407 4.75413C2.56616 4.46029 2.84558 4.32998 3.04637 4.19874C3.15206 4.12975 3.46996 3.94197 3.7241 4.03755C3.92134 4.11206 3.9615 4.30508 4.09695 4.42809C4.25384 4.57112 4.73677 4.72333 4.73677 4.72333C5.08406 4.82976 5.29159 4.81965 5.63523 4.90175C5.81879 4.94397 6.84559 5.00238 7.6202 4.98375C8.07842 4.9728 8.76092 4.90605 8.98175 4.86936C9.21362 4.83107 9.65583 4.72998 9.68634 4.56747C9.73333 4.32137 9.06066 4.17656 8.91042 4.15531C8.80586 4.14043 8.25937 4.0676 8.25937 4.0676C8.25937 4.0676 7.38225 3.99842 6.822 3.94834C6.32559 3.90388 5.71021 3.84603 5.55023 3.82721C5.33118 3.81579 4.41606 3.64673 4.15405 3.55724C3.6934 3.39988 3.03533 3.27164 3.04797 2.74575C3.05377 2.49927 3.26327 2.3744 3.45002 2.25776C3.67552 2.11651 4.03245 2.01606 4.36982 1.91974C4.65916 1.83699 5.45241 1.71474 5.94657 1.67505C6.04186 1.6713 6.78137 1.62412 7.31588 1.6157C7.81023 1.60793 8.08937 1.61102 8.58325 1.6274C8.97913 1.6405 9.20266 1.64715 9.59704 1.68066C10.3083 1.74057 11.2218 1.86498 11.409 1.93902C11.5602 1.99594 11.7328 1.99753 11.7251 2.15264C11.7163 2.32656 11.1639 2.49478 10.9821 2.56143C10.7614 2.64137 10.4932 2.71027 10.1879 2.69426C10.0394 2.68649 9.91643 2.66955 9.80888 2.64165C9.80888 2.64165 8.99766 2.43122 8.46783 2.3641C8.0289 2.3084 7.77765 2.29389 7.33479 2.29427C6.96438 2.29464 6.75507 2.3114 6.38634 2.3451C6.02595 2.37767 5.5785 2.5194 5.56455 2.69258C5.55042 2.86828 5.98233 2.95552 6.24865 3.01169C6.46329 3.05728 6.71753 3.08068 7.01839 3.11775C7.78795 3.21248 8.22801 3.20668 8.99916 3.28727C9.41066 3.33024 9.6444 3.34587 10.0536 3.40803C10.5768 3.48769 10.9726 3.56511 11.3838 3.67481C11.8993 3.81242 12.4882 4.0353 12.5046 4.37641C12.5248 4.78783 12.0646 5.06369 11.7062 5.21964C11.3358 5.38084 10.8727 5.4927 10.442 5.56834C10.2204 5.63321 9.28485 5.74882 8.53888 5.79712C7.98107 5.83297 7.66495 5.83334 7.10582 5.83044ZM13.0531 6.93578V6.89262H13.3988V6.93578H13.2542V7.32856H13.1964V6.93578H13.0531ZM13.4906 7.32866H13.4374V6.89272H13.5115L13.6872 7.27998H13.6893L13.865 6.89272H13.9378V7.32866H13.885V6.96657H13.8828L13.7159 7.32866H13.6594L13.493 6.96657H13.4907V7.32866H13.4906Z" fill="#979797"/>
</svg>
